<?xml version="1.0" encoding="UTF-8"?><svg xmlns="http://www.w3.org/2000/svg" xmlns:xlink="http://www.w3.org/1999/xlink" fill-opacity="1" color-rendering="auto" color-interpolation="auto" text-rendering="auto" stroke="black" stroke-linecap="square" width="543" stroke-miterlimit="10" shape-rendering="auto" stroke-opacity="1" fill="black" stroke-dasharray="none" font-weight="normal" stroke-width="1" height="659" font-family="'Dialog'" font-style="normal" stroke-linejoin="miter" font-size="12px" stroke-dashoffset="0" image-rendering="auto">
  <!--Generated by ySVG 2.5-->
  <defs id="genericDefs"/>
  <g>
    <defs id="defs1">
      <linearGradient x1="709.7222" gradientUnits="userSpaceOnUse" x2="841.7953" y1="763.3185" y2="763.3185" id="linearGradient1" spreadMethod="reflect">
        <stop stop-opacity="1" stop-color="rgb(169,228,111)" offset="0%"/>
        <stop stop-opacity="1" stop-color="rgb(238,244,194)" offset="100%"/>
      </linearGradient>
      <clipPath clipPathUnits="userSpaceOnUse" id="clipPath1">
        <path d="M0 0 L543 0 L543 659 L0 659 L0 0 Z"/>
      </clipPath>
      <clipPath clipPathUnits="userSpaceOnUse" id="clipPath2">
        <path d="M496 463 L1039 463 L1039 1122 L496 1122 L496 463 Z"/>
      </clipPath>
    </defs>
    <g fill="white" text-rendering="geometricPrecision" shape-rendering="geometricPrecision" transform="translate(-496,-463)" stroke="white">
      <rect x="496" width="543" height="659" y="463" clip-path="url(#clipPath2)" stroke="none"/>
    </g>
    <g transform="matrix(1,0,0,1,-496,-463)" fill-opacity="0.0196" fill="rgb(255,99,160)" text-rendering="geometricPrecision" shape-rendering="geometricPrecision" stroke="rgb(255,99,160)" stroke-opacity="0.0196">
      <rect x="511.4512" y="478.187" clip-path="url(#clipPath2)" width="512.1806" rx="4" ry="4" height="628.7244" stroke="none"/>
    </g>
    <g transform="matrix(1,0,0,1,-496,-463)" fill-opacity="0.0392" fill="rgb(255,99,192)" text-rendering="geometricPrecision" shape-rendering="geometricPrecision" stroke="rgb(255,99,192)" stroke-opacity="0.0392">
      <rect x="511.4512" width="512.1806" height="21.666" y="478.187" clip-path="url(#clipPath2)" stroke="none"/>
    </g>
    <g font-size="15px" stroke-linecap="butt" transform="matrix(1,0,0,1,-496,-463)" text-rendering="geometricPrecision" font-family="sans-serif" shape-rendering="geometricPrecision" stroke-miterlimit="1.45">
      <text x="513.4512" xml:space="preserve" y="494.6889" clip-path="url(#clipPath2)" stroke="none">Qualifying variant filtering</text>
    </g>
    <g stroke-linecap="butt" transform="matrix(1,0,0,1,-496,-463)" fill="rgb(73,46,35)" text-rendering="geometricPrecision" shape-rendering="geometricPrecision" stroke="rgb(73,46,35)" stroke-miterlimit="1.45">
      <rect x="511.4512" y="478.187" clip-path="url(#clipPath2)" fill="none" width="512.1806" rx="4" ry="4" height="628.7244"/>
    </g>
    <g fill="rgb(197,158,229)" text-rendering="geometricPrecision" shape-rendering="geometricPrecision" transform="matrix(1,0,0,1,-496,-463)" stroke="rgb(197,158,229)">
      <rect x="571.8314" y="514.853" clip-path="url(#clipPath2)" width="341.8181" rx="4" ry="4" height="60" stroke="none"/>
    </g>
    <g stroke-linecap="butt" transform="matrix(1,0,0,1,-496,-463)" fill="rgb(73,46,35)" text-rendering="geometricPrecision" shape-rendering="geometricPrecision" stroke="rgb(73,46,35)" stroke-miterlimit="1.45">
      <rect x="571.8314" y="514.853" clip-path="url(#clipPath2)" fill="none" width="341.8181" rx="4" ry="4" height="60"/>
      <text x="712.5471" y="542.3217" clip-path="url(#clipPath2)" fill="black" font-family="sans-serif" stroke="none" xml:space="preserve">Annotated</text>
      <text x="719.7922" y="556.4545" clip-path="url(#clipPath2)" fill="black" font-family="sans-serif" stroke="none" xml:space="preserve">variants</text>
    </g>
    <g fill="url(#linearGradient1)" text-rendering="geometricPrecision" shape-rendering="geometricPrecision" transform="matrix(1,0,0,1,-496,-463)" stroke="url(#linearGradient1)">
      <rect x="643.6857" y="763.3185" clip-path="url(#clipPath2)" width="198.1096" rx="4" ry="4" height="60" stroke="none"/>
    </g>
    <g stroke-linecap="butt" transform="matrix(1,0,0,1,-496,-463)" fill="rgb(73,46,35)" text-rendering="geometricPrecision" shape-rendering="geometricPrecision" stroke="rgb(73,46,35)" stroke-miterlimit="1.45">
      <rect x="643.6857" y="763.3185" clip-path="url(#clipPath2)" fill="none" width="198.1096" rx="4" ry="4" height="60"/>
      <text x="706.6174" y="797.8537" clip-path="url(#clipPath2)" fill="black" font-family="sans-serif" stroke="none" xml:space="preserve">Filtered QV1</text>
    </g>
    <g fill="rgb(169,228,111)" text-rendering="geometricPrecision" shape-rendering="geometricPrecision" transform="matrix(1,0,0,1,-496,-463)" stroke="rgb(169,228,111)">
      <rect x="700.8787" y="1027.4471" clip-path="url(#clipPath2)" width="83.7235" rx="4" ry="4" height="60" stroke="none"/>
    </g>
    <g stroke-linecap="butt" transform="matrix(1,0,0,1,-496,-463)" fill="rgb(73,46,35)" text-rendering="geometricPrecision" shape-rendering="geometricPrecision" stroke="rgb(73,46,35)" stroke-miterlimit="1.45">
      <rect x="700.8787" y="1027.4471" clip-path="url(#clipPath2)" fill="none" width="83.7235" rx="4" ry="4" height="60"/>
      <text x="706.6174" y="1061.9823" clip-path="url(#clipPath2)" fill="black" font-family="sans-serif" stroke="none" xml:space="preserve">Filtered QV2</text>
    </g>
    <g fill="rgb(240,155,110)" text-rendering="geometricPrecision" shape-rendering="geometricPrecision" transform="matrix(1,0,0,1,-496,-463)" stroke="rgb(240,155,110)">
      <path d="M680.4059 883.4656 L805.075 883.4656 L773.9077 923.4656 L711.5732 923.4656 Z" fill-rule="evenodd" clip-path="url(#clipPath2)" stroke="none"/>
    </g>
    <g text-rendering="geometricPrecision" stroke-miterlimit="1.45" shape-rendering="geometricPrecision" transform="matrix(1,0,0,1,-496,-463)" stroke-linecap="butt">
      <path fill="none" d="M680.4059 883.4656 L805.075 883.4656 L773.9077 923.4656 L711.5732 923.4656 Z" fill-rule="evenodd" clip-path="url(#clipPath2)"/>
    </g>
    <g fill="rgb(252,170,126)" text-rendering="geometricPrecision" shape-rendering="geometricPrecision" transform="matrix(1,0,0,1,-496,-463)" stroke="rgb(252,170,126)">
      <path d="M611.6692 843.4656 L873.8117 843.4656 L808.2761 883.4656 L677.2048 883.4656 Z" fill-rule="evenodd" clip-path="url(#clipPath2)" stroke="none"/>
    </g>
    <g text-rendering="geometricPrecision" stroke-miterlimit="1.45" shape-rendering="geometricPrecision" transform="matrix(1,0,0,1,-496,-463)" stroke-linecap="butt">
      <path fill="none" d="M611.6692 843.4656 L873.8117 843.4656 L808.2761 883.4656 L677.2048 883.4656 Z" fill-rule="evenodd" clip-path="url(#clipPath2)"/>
    </g>
    <g fill="rgb(219,140,98)" text-rendering="geometricPrecision" shape-rendering="geometricPrecision" transform="matrix(1,0,0,1,-496,-463)" stroke="rgb(219,140,98)">
      <path d="M713.6035 923.4656 L771.8774 923.4656 L757.3089 963.4656 L728.172 963.4656 Z" fill-rule="evenodd" clip-path="url(#clipPath2)" stroke="none"/>
    </g>
    <g text-rendering="geometricPrecision" stroke-miterlimit="1.45" shape-rendering="geometricPrecision" transform="matrix(1,0,0,1,-496,-463)" stroke-linecap="butt">
      <path fill="none" d="M713.6035 923.4656 L771.8774 923.4656 L757.3089 963.4656 L728.172 963.4656 Z" fill-rule="evenodd" clip-path="url(#clipPath2)"/>
    </g>
    <g fill="rgb(198,113,67)" text-rendering="geometricPrecision" shape-rendering="geometricPrecision" transform="matrix(1,0,0,1,-496,-463)" stroke="rgb(198,113,67)">
      <path d="M730.7869 962.4471 L754.6941 962.4471 L742.7405 1002.4471 Z" fill-rule="evenodd" clip-path="url(#clipPath2)" stroke="none"/>
    </g>
    <g text-rendering="geometricPrecision" stroke-miterlimit="1.45" shape-rendering="geometricPrecision" transform="matrix(1,0,0,1,-496,-463)" stroke-linecap="butt">
      <path fill="none" d="M730.7869 962.4471 L754.6941 962.4471 L742.7405 1002.4471 Z" fill-rule="evenodd" clip-path="url(#clipPath2)"/>
    </g>
    <g fill="rgb(252,191,158)" text-rendering="geometricPrecision" shape-rendering="geometricPrecision" transform="matrix(1,0,0,1,-496,-463)" stroke="rgb(252,191,158)">
      <path d="M664.2855 653.2069 L821.1954 653.2069 L781.968 698.2069 L703.513 698.2069 Z" fill-rule="evenodd" clip-path="url(#clipPath2)" stroke="none"/>
    </g>
    <g text-rendering="geometricPrecision" stroke-miterlimit="1.45" shape-rendering="geometricPrecision" transform="matrix(1,0,0,1,-496,-463)" stroke-linecap="butt">
      <path fill="none" d="M664.2855 653.2069 L821.1954 653.2069 L781.968 698.2069 L703.513 698.2069 Z" fill-rule="evenodd" clip-path="url(#clipPath2)"/>
    </g>
    <g fill="rgb(253,201,173)" text-rendering="geometricPrecision" shape-rendering="geometricPrecision" transform="matrix(1,0,0,1,-496,-463)" stroke="rgb(253,201,173)">
      <path d="M571.8314 608.2423 L913.6495 608.2423 L828.1949 653.2423 L657.2859 653.2423 Z" fill-rule="evenodd" clip-path="url(#clipPath2)" stroke="none"/>
    </g>
    <g text-rendering="geometricPrecision" stroke-miterlimit="1.45" shape-rendering="geometricPrecision" transform="matrix(1,0,0,1,-496,-463)" stroke-linecap="butt">
      <path fill="none" d="M571.8314 608.2423 L913.6495 608.2423 L828.1949 653.2423 L657.2859 653.2423 Z" fill-rule="evenodd" clip-path="url(#clipPath2)"/>
    </g>
    <g fill="rgb(255,181,141)" text-rendering="geometricPrecision" shape-rendering="geometricPrecision" transform="matrix(1,0,0,1,-496,-463)" stroke="rgb(255,181,141)">
      <path d="M713.6035 698.1715 L771.8774 698.1715 L757.3089 743.1715 L728.172 743.1715 Z" fill-rule="evenodd" clip-path="url(#clipPath2)" stroke="none"/>
    </g>
    <g text-rendering="geometricPrecision" stroke-miterlimit="1.45" shape-rendering="geometricPrecision" transform="matrix(1,0,0,1,-496,-463)" stroke-linecap="butt">
      <path fill="none" d="M713.6035 698.1715 L771.8774 698.1715 L757.3089 743.1715 L728.172 743.1715 Z" fill-rule="evenodd" clip-path="url(#clipPath2)"/>
    </g>
    <g fill="rgb(252,170,126)" text-rendering="geometricPrecision" shape-rendering="geometricPrecision" transform="matrix(1,0,0,1,-496,-463)" stroke="rgb(252,170,126)">
      <rect x="532.1595" y="608.2423" clip-path="url(#clipPath2)" width="33" rx="4" ry="4" height="134.9292" stroke="none"/>
    </g>
    <g stroke-linecap="butt" transform="matrix(1,0,0,1,-496,-463)" fill="rgb(73,46,35)" text-rendering="geometricPrecision" shape-rendering="geometricPrecision" stroke="rgb(73,46,35)" stroke-miterlimit="1.45">
      <rect x="532.1595" y="608.2423" clip-path="url(#clipPath2)" fill="none" width="33" rx="4" ry="4" height="134.9292"/>
      <text x="534.3831" y="680.2421" clip-path="url(#clipPath2)" fill="black" font-family="sans-serif" stroke="none" xml:space="preserve">QV 1</text>
    </g>
    <g fill="rgb(252,170,126)" text-rendering="geometricPrecision" shape-rendering="geometricPrecision" transform="matrix(1,0,0,1,-496,-463)" stroke="rgb(252,170,126)">
      <rect x="532.1595" y="843.4656" clip-path="url(#clipPath2)" width="33" rx="4" ry="4" height="158.9815" stroke="none"/>
    </g>
    <g stroke-linecap="butt" transform="matrix(1,0,0,1,-496,-463)" fill="rgb(73,46,35)" text-rendering="geometricPrecision" shape-rendering="geometricPrecision" stroke="rgb(73,46,35)" stroke-miterlimit="1.45">
      <rect x="532.1595" y="843.4656" clip-path="url(#clipPath2)" fill="none" width="33" rx="4" ry="4" height="158.9815"/>
      <text x="534.3831" y="927.4915" clip-path="url(#clipPath2)" fill="black" font-family="sans-serif" stroke="none" xml:space="preserve">QV 2</text>
    </g>
    <g fill="white" text-rendering="geometricPrecision" shape-rendering="geometricPrecision" transform="matrix(1,0,0,1,-496,-463)" stroke="white">
      <rect x="913.6495" y="615.7423" clip-path="url(#clipPath2)" width="93" rx="4" ry="4" height="30" stroke="none"/>
    </g>
    <g stroke-linecap="butt" transform="matrix(1,0,0,1,-496,-463)" fill="rgb(73,46,35)" text-rendering="geometricPrecision" shape-rendering="geometricPrecision" stroke="rgb(73,46,35)" stroke-miterlimit="1.45">
      <rect x="913.6495" y="615.7423" clip-path="url(#clipPath2)" fill="none" width="93" rx="4" ry="4" height="30"/>
      <text x="945.9229" y="628.2111" clip-path="url(#clipPath2)" fill="black" font-family="sans-serif" stroke="none" xml:space="preserve">Read</text>
      <text x="943.2862" y="642.3439" clip-path="url(#clipPath2)" fill="black" font-family="sans-serif" stroke="none" xml:space="preserve">depth</text>
    </g>
    <g fill="white" text-rendering="geometricPrecision" shape-rendering="geometricPrecision" transform="matrix(1,0,0,1,-496,-463)" stroke="white">
      <rect x="787.1365" y="705.6715" clip-path="url(#clipPath2)" width="93" rx="4" ry="4" height="30" stroke="none"/>
    </g>
    <g stroke-linecap="butt" transform="matrix(1,0,0,1,-496,-463)" fill="rgb(73,46,35)" text-rendering="geometricPrecision" shape-rendering="geometricPrecision" stroke="rgb(73,46,35)" stroke-miterlimit="1.45">
      <rect x="787.1365" y="705.6715" clip-path="url(#clipPath2)" fill="none" width="93" rx="4" ry="4" height="30"/>
      <text x="794.5925" y="718.1403" clip-path="url(#clipPath2)" fill="black" font-family="sans-serif" stroke="none" xml:space="preserve">Frequency in </text>
      <text x="802.239" y="732.2731" clip-path="url(#clipPath2)" fill="black" font-family="sans-serif" stroke="none" xml:space="preserve">population</text>
    </g>
    <g fill="white" text-rendering="geometricPrecision" shape-rendering="geometricPrecision" transform="matrix(1,0,0,1,-496,-463)" stroke="white">
      <rect x="913.6495" y="848.4656" clip-path="url(#clipPath2)" width="93" rx="4" ry="4" height="30" stroke="none"/>
    </g>
    <g stroke-linecap="butt" transform="matrix(1,0,0,1,-496,-463)" fill="rgb(73,46,35)" text-rendering="geometricPrecision" shape-rendering="geometricPrecision" stroke="rgb(73,46,35)" stroke-miterlimit="1.45">
      <rect x="913.6495" y="848.4656" clip-path="url(#clipPath2)" fill="none" width="93" rx="4" ry="4" height="30"/>
      <text x="923.004" y="860.9343" clip-path="url(#clipPath2)" fill="black" font-family="sans-serif" stroke="none" xml:space="preserve">Frequency in</text>
      <text x="936.4893" y="875.0671" clip-path="url(#clipPath2)" fill="black" font-family="sans-serif" stroke="none" xml:space="preserve">controls</text>
    </g>
    <g fill="white" text-rendering="geometricPrecision" shape-rendering="geometricPrecision" transform="matrix(1,0,0,1,-496,-463)" stroke="white">
      <rect x="854.1348" y="888.4656" clip-path="url(#clipPath2)" width="93" rx="4" ry="4" height="30" stroke="none"/>
    </g>
    <g stroke-linecap="butt" transform="matrix(1,0,0,1,-496,-463)" fill="rgb(73,46,35)" text-rendering="geometricPrecision" shape-rendering="geometricPrecision" stroke="rgb(73,46,35)" stroke-miterlimit="1.45">
      <rect x="854.1348" y="888.4656" clip-path="url(#clipPath2)" fill="none" width="93" rx="4" ry="4" height="30"/>
      <text x="868.2295" y="900.9343" clip-path="url(#clipPath2)" fill="black" font-family="sans-serif" stroke="none" xml:space="preserve">Inheritance</text>
      <text x="879.5352" y="915.0671" clip-path="url(#clipPath2)" fill="black" font-family="sans-serif" stroke="none" xml:space="preserve">pattern</text>
    </g>
    <g fill="white" text-rendering="geometricPrecision" shape-rendering="geometricPrecision" transform="matrix(1,0,0,1,-496,-463)" stroke="white">
      <rect x="820.9372" y="928.4656" clip-path="url(#clipPath2)" width="93" rx="4" ry="4" height="30" stroke="none"/>
    </g>
    <g stroke-linecap="butt" transform="matrix(1,0,0,1,-496,-463)" fill="rgb(73,46,35)" text-rendering="geometricPrecision" shape-rendering="geometricPrecision" stroke="rgb(73,46,35)" stroke-miterlimit="1.45">
      <rect x="820.9372" y="928.4656" clip-path="url(#clipPath2)" fill="none" width="93" rx="4" ry="4" height="30"/>
      <text x="846.9352" y="940.9343" clip-path="url(#clipPath2)" fill="black" font-family="sans-serif" stroke="none" xml:space="preserve">Protein</text>
      <text x="851.0222" y="955.0671" clip-path="url(#clipPath2)" fill="black" font-family="sans-serif" stroke="none" xml:space="preserve">effect</text>
    </g>
    <g fill="white" text-rendering="geometricPrecision" shape-rendering="geometricPrecision" transform="matrix(1,0,0,1,-496,-463)" stroke="white">
      <rect x="803.7539" y="967.4471" clip-path="url(#clipPath2)" width="93" rx="4" ry="4" height="30" stroke="none"/>
    </g>
    <g stroke-linecap="butt" transform="matrix(1,0,0,1,-496,-463)" fill="rgb(73,46,35)" text-rendering="geometricPrecision" shape-rendering="geometricPrecision" stroke="rgb(73,46,35)" stroke-miterlimit="1.45">
      <rect x="803.7539" y="967.4471" clip-path="url(#clipPath2)" fill="none" width="93" rx="4" ry="4" height="30"/>
      <text x="812.9766" y="979.9159" clip-path="url(#clipPath2)" fill="black" font-family="sans-serif" stroke="none" xml:space="preserve">Pathogenicty</text>
      <text x="834.6387" y="994.0487" clip-path="url(#clipPath2)" fill="black" font-family="sans-serif" stroke="none" xml:space="preserve">score</text>
    </g>
    <g fill="white" text-rendering="geometricPrecision" shape-rendering="geometricPrecision" transform="matrix(1,0,0,1,-496,-463)" stroke="white">
      <rect x="854.1348" y="660.7069" clip-path="url(#clipPath2)" width="93" rx="4" ry="4" height="30" stroke="none"/>
    </g>
    <g stroke-linecap="butt" transform="matrix(1,0,0,1,-496,-463)" fill="rgb(73,46,35)" text-rendering="geometricPrecision" shape-rendering="geometricPrecision" stroke="rgb(73,46,35)" stroke-miterlimit="1.45">
      <rect x="854.1348" y="660.7069" clip-path="url(#clipPath2)" fill="none" width="93" rx="4" ry="4" height="30"/>
      <text x="873.0488" y="673.1757" clip-path="url(#clipPath2)" fill="black" font-family="sans-serif" stroke="none" xml:space="preserve">Genotype</text>
      <text x="880.9736" y="687.3085" clip-path="url(#clipPath2)" fill="black" font-family="sans-serif" stroke="none" xml:space="preserve">quality</text>
      <path fill="none" d="M742.7405 823.2886 L742.7405 831.1198" stroke-width="2" clip-path="url(#clipPath2)"/>
      <path d="M742.7405 843.4948 L749.4905 829.9948 L735.9905 829.9948 Z" stroke-width="2" clip-path="url(#clipPath2)" stroke="none"/>
      <path fill="none" d="M742.7405 1002.4789 L742.7405 1015.0919" stroke-width="2" clip-path="url(#clipPath2)"/>
      <path d="M742.7405 1027.4669 L749.4905 1013.9669 L735.9905 1013.9669 Z" stroke-width="2" clip-path="url(#clipPath2)" stroke="none"/>
      <path fill="none" d="M742.7405 574.8387 L742.7405 595.8475" stroke-width="2" clip-path="url(#clipPath2)"/>
      <path d="M742.7405 608.2225 L749.4905 594.7225 L735.9905 594.7225 Z" stroke-width="2" clip-path="url(#clipPath2)" stroke="none"/>
      <path fill="none" d="M742.7405 743.1964 L742.7405 750.9387" stroke-width="2" clip-path="url(#clipPath2)"/>
      <path d="M742.7405 763.3137 L749.4905 749.8137 L735.9905 749.8137 Z" stroke-width="2" clip-path="url(#clipPath2)" stroke="none"/>
      <path fill="none" d="M870.8982 630.7423 L901.2749 630.7423" stroke-width="2" clip-path="url(#clipPath2)"/>
      <path d="M913.6499 630.7423 L900.1499 623.9923 L900.1499 637.4923 Z" stroke-width="2" clip-path="url(#clipPath2)" stroke="none"/>
      <path fill="none" d="M764.6212 720.6715 L774.7907 720.6715" stroke-width="2" clip-path="url(#clipPath2)"/>
      <path d="M787.1657 720.6715 L773.6657 713.9215 L773.6657 727.4215 Z" stroke-width="2" clip-path="url(#clipPath2)" stroke="none"/>
      <path fill="none" d="M841.0682 863.4656 L901.2874 863.4656" stroke-width="2" clip-path="url(#clipPath2)"/>
      <path d="M913.6624 863.4656 L900.1624 856.7156 L900.1624 870.2156 Z" stroke-width="2" clip-path="url(#clipPath2)" stroke="none"/>
      <path fill="none" d="M789.4997 903.4656 L841.7816 903.4656" stroke-width="2" clip-path="url(#clipPath2)"/>
      <path d="M854.1566 903.4656 L840.6566 896.7156 L840.6566 910.2156 Z" stroke-width="2" clip-path="url(#clipPath2)" stroke="none"/>
      <path fill="none" d="M764.5685 943.4656 L808.5754 943.4656" stroke-width="2" clip-path="url(#clipPath2)"/>
      <path d="M820.9504 943.4656 L807.4504 936.7156 L807.4504 950.2156 Z" stroke-width="2" clip-path="url(#clipPath2)" stroke="none"/>
      <path fill="none" d="M748.6989 982.4471 L791.4155 982.4471" stroke-width="2" clip-path="url(#clipPath2)"/>
      <path d="M803.7905 982.4471 L790.2905 975.6971 L790.2905 989.1971 Z" stroke-width="2" clip-path="url(#clipPath2)" stroke="none"/>
      <path fill="none" d="M801.6039 675.7069 L841.7907 675.7069" stroke-width="2" clip-path="url(#clipPath2)"/>
      <path d="M854.1657 675.7069 L840.6657 668.9569 L840.6657 682.4569 Z" stroke-width="2" clip-path="url(#clipPath2)" stroke="none"/>
    </g>
  </g>
</svg>
